#!OML:ASF F:\VICON\USERDATA\Patient Classification 1\PLAYGROUND\JustinFriday\JustinFriday.ASF
:FULLY-SPECIFIED
:DEGREES
3358
root 13.3793 27.0921 47.6373 -711.663 -176.112 5.50785
lowerback 23.1471 0.629316 1.45867
upperback 5.44405 0.259064 2.34231
thorax -6.91747 -0.346469 1.69657
lowerneck 17.0503 -4.6565 -10.3017
upperneck -24.1144 -6.97322 12.9113
head -9.51848 -4.24213 7.267
rclavicle 9.49197e-015 2.33572e-014
rhumerus 92.4198 -4.72473 -79.9255
rradius 86.0572
rwrist 16.4779
rhand -31.7656 -16.7974
rfingers 7.12502
rthumb -5.02245 -406.718
lclavicle 9.49197e-015 2.33572e-014
lhumerus 95.2033 0.198984 75
lradius 80.3144
lwrist -31.6114
lhand -15.5334 -4.89922
lfingers 7.12502
lthumb 10.6502 24.8109
rfemur -24.8221 4.41345 24.784
rtibia 28.6922
rfoot -32.6701 -10.1026
rtoes 7.15559
lfemur -23.7505 2.65447 -13.2158
ltibia 27.7915
lfoot -31.1028 -2.00565
ltoes -3.43618
3359
root 13.3616 27.0794 47.696 -711.887 -175.913 5.91761
lowerback 23.0086 0.410562 2.12151
upperback 5.4363 0.126177 2.39143
thorax -6.84498 -0.42039 1.40653
lowerneck 16.3769 -4.69181 -10.3159
upperneck -23.5943 -6.99831 12.8128
head -9.2102 -4.23474 7.15525
rclavicle 9.49197e-015 2.15681e-014
rhumerus 92.1178 -4.39009 -80.0849
rradius 85.2487
rwrist 16.6706
rhand -31.4682 -17.2896
rfingers 7.12502
rthumb -4.73525 -407.217
lclavicle 9.49197e-015 2.15681e-014
lhumerus 94.9261 0.00344257 75.047
lradius 79.6109
lwrist -31.5277
lhand -15.3921 -4.82836
lfingers 7.12502
lthumb 10.7866 24.8747
rfemur -24.8159 4.32094 25.1515
rtibia 28.6538
rfoot -32.539 -10.2254
rtoes 7.46375
lfemur -23.8097 2.44646 -12.8196
ltibia 27.7501
lfoot -31.0508 -2.07514
ltoes -3.13222
3360
root 13.3667 27.0689 47.7498 -711.884 -176.741 6.41658
lowerback 22.5295 0.722225 2.15287
upperback 5.43586 0.539772 2.49533
thorax -6.60201 -0.217412 1.38006
lowerneck 15.9697 -4.70208 -10.4605
upperneck -23.5244 -6.99467 13.0188
head -9.09299 -4.25049 7.22498
rclavicle 9.93923e-017 1.26228e-014
rhumerus 91.8574 -4.13917 -80.1909
rradius 84.3878
rwrist 16.7206
rhand -31.4792 -17.4526
rfingers 7.12502
rthumb -4.74588 -407.379
lclavicle 9.93923e-017 1.26228e-014
lhumerus 94.7217 -0.243152 75.1252
lradius 78.7267
lwrist -31.5107
lhand -15.3902 -4.65854
lfingers 7.12502
lthumb 10.7884 25.0444
rfemur -24.9821 4.85843 25.6267
rtibia 28.4889
rfoot -32.3208 -10.0425
rtoes 7.78386
lfemur -23.8885 2.90043 -12.3025
ltibia 27.824
lfoot -31.1967 -1.47883
ltoes -4.10572
3361
root 13.3526 27.0637 47.7742 -712.638 -177.771 6.194
lowerback 22.4101 1.12253 1.7041
upperback 5.77295 0.875558 2.3584
thorax -6.18285 -0.0738618 1.39354
lowerneck 15.7958 -4.67059 -10.3708
upperneck -23.7174 -6.98126 12.8386
head -9.14263 -4.2388 7.15208
rclavicle 1.01877e-014 4.36332e-014
rhumerus 91.6374 -3.91969 -80.2899
rradius 83.6726
rwrist 16.7039
rhand -31.5164 -17.4706
rfingers 7.12502
rthumb -4.78181 -407.397
lclavicle 1.01877e-014 4.36332e-014
lhumerus 94.5962 -0.448054 75.2273
lradius 77.7549
lwrist -31.6287
lhand -15.478 -4.72552
lfingers 7.12502
lthumb 10.7037 24.9818
rfemur -24.153 4.51041 25.3671
rtibia 28.3065
rfoot -32.42 -8.6974
rtoes 8.14497
lfemur -22.7822 2.32394 -12.5832
ltibia 27.8251
lfoot -31.6483 0.257143
ltoes -5.5232
3362
root 13.361 27.0538 47.8258 -713.241 -178.411 6.06264
lowerback 22.445 1.46921 1.08072
upperback 6.01789 1.13084 2.36615
thorax -5.95411 0.0330567 1.6892
lowerneck 15.5814 -4.71611 -10.0307
upperneck -23.8117 -7.04442 12.4751
head -9.16016 -4.26023 6.96816
rclavicle -4.91992e-015 -1.63003e-014
rhumerus 91.479 -3.72736 -80.375
rradius 82.9827
rwrist 16.6357
rhand -31.4549 -17.3509
rfingers 7.12502
rthumb -4.72241 -407.278
lclavicle -4.91992e-015 -1.63003e-014
lhumerus 94.5435 -0.66621 75.3841
lradius 76.8618
lwrist -31.9237
lhand -15.3616 -4.74587
lfingers 7.12502
lthumb 10.816 24.9556
rfemur -23.6193 4.94195 25.2346
rtibia 28.2155
rfoot -32.4649 -8.11565
rtoes 9.01736
lfemur -22.1511 2.83244 -12.7402
ltibia 27.8131
lfoot -31.7602 0.260122
ltoes -5.428
